<?xml version="1.0" ?><svg id="Layer_1" style="enable-background:new 0 0 128 128;" version="1.1" viewBox="0 0 128 128" xml:space="preserve" xmlns="http://www.w3.org/2000/svg" xmlns:xlink="http://www.w3.org/1999/xlink"><style type="text/css">
	.st0{fill:#FF5050;}
	.st1{fill:#FFFFFF;}
	.st2{fill:#9B0270;}
	.st3{fill:#FFD952;}
	.st4{fill:#FF9D00;}
	.st5{fill:#DFE8F4;}
	.st6{fill:#52EFBB;}
	.st7{fill:#33BC8B;}
	.st8{fill:#0795FF;}
	.st9{fill:#500599;}
	.st10{fill:#4D28A8;}
	.st11{fill:#35DC86;}
	.st12{fill:#27A88F;}
</style><g><path class="st8" d="M98,69c-13.9,0-25.6,9.9-28.4,23H58.4C55.6,78.9,43.9,69,30,69c-7.3,0-13.9,2.7-19,7.1L7.3,93.6L1,98   c0,16,13,29,29,29c14.6,0,26.8-10.9,28.7-25h10.6c2,14.1,14.1,25,28.7,25c16,0,29-13,29-29l-6.3-5.7L117,76.1   C111.9,71.7,105.3,69,98,69z M30,117c-10.5,0-19-8.5-19-19s8.5-19,19-19s19,8.5,19,19S40.5,117,30,117z M98,117   c-10.5,0-19-8.5-19-19s8.5-19,19-19s19,8.5,19,19S108.5,117,98,117z"/><polygon class="st5" points="11,76.1 1,98 1,16 11,16  "/><path class="st10" d="M11,76.1C4.9,81.4,1,89.3,1,98h10V76.1z"/><polygon class="st5" points="127,98 117,76.1 117,16 127,16  "/><path class="st10" d="M117,76.1V98h10C127,89.3,123.1,81.4,117,76.1z"/></g></svg>